<?xml version="1.0" standalone="no"?>
<!DOCTYPE svg PUBLIC "-//W3C//DTD SVG 20010904//EN"
 "http://www.w3.org/TR/2001/REC-SVG-20010904/DTD/svg10.dtd">
<svg version="1.0" xmlns="http://www.w3.org/2000/svg"
 width="320.000000pt" height="320.000000pt" viewBox="0 0 320.000000 320.000000"
 preserveAspectRatio="xMidYMid meet">
<metadata>
Created by potrace 1.14, written by Peter Selinger 2001-2017
</metadata>
<g transform="translate(0.000000,320.000000) scale(0.100000,-0.100000)"
fill="#000000" stroke="none">
<path d="M1425 2986 c-152 -49 -260 -128 -339 -247 -50 -75 -73 -141 -76 -219
-3 -66 -6 -119 -9 -132 0 -4 -20 -20 -43 -36 -189 -131 -370 -417 -413 -652
-2 -14 -8 -43 -12 -65 -14 -81 -7 -295 13 -383 32 -140 113 -318 195 -426 211
-277 542 -438 882 -430 56 2 113 5 127 8 13 3 42 8 63 11 114 18 273 85 397
170 209 142 384 391 436 620 35 154 42 339 17 472 -27 146 -85 287 -172 417
-45 68 -167 200 -225 244 -25 19 -29 29 -32 82 -7 142 -17 170 -137 374 -28
46 -67 85 -115 113 -39 23 -126 60 -162 69 -8 2 -41 10 -72 17 -93 23 -241 20
-323 -7z"/>
<path d="M810 2643 c-34 -6 -38 -12 -46 -58 -3 -22 -9 -59 -14 -82 -9 -49 -6
-53 32 -53 27 0 28 -2 28 -47 0 -52 15 -89 24 -63 3 8 19 52 36 98 38 104 38
110 1 104 l-29 -4 9 43 c10 42 6 70 -8 68 -4 -1 -19 -4 -33 -6z"/>
<path d="M2379 2628 c-1 -7 -1 -32 -2 -55 0 -40 -1 -42 -29 -36 -26 5 -28 4
-24 -23 16 -117 30 -177 43 -181 9 -3 24 47 28 92 0 6 16 9 35 7 l36 -3 -1 91
0 92 -34 14 c-41 17 -51 18 -52 2z"/>
<path d="M575 2365 c-16 -9 -34 -21 -40 -28 -5 -7 -17 -13 -25 -13 -35 0 -77
-14 -99 -33 l-24 -21 27 -68 c14 -37 30 -73 34 -80 9 -13 19 -10 127 38 22 9
63 25 90 35 28 10 53 21 57 24 4 3 -4 33 -16 66 -13 33 -26 68 -30 78 -7 22
-59 23 -101 2z"/>
<path d="M2530 2327 c-11 -29 -26 -62 -32 -74 -15 -30 -7 -37 64 -63 35 -13
68 -26 73 -30 20 -13 126 -53 130 -48 3 2 18 37 35 78 28 68 29 75 14 91 -17
19 -99 51 -108 42 -3 -3 -19 6 -36 21 -17 14 -37 27 -43 27 -75 10 -74 10 -97
-44z"/>
<path d="M481 2031 c-46 -48 -80 -111 -83 -155 -3 -34 -15 -33 -23 2 -8 36
-40 77 -53 68 -18 -11 -42 -107 -38 -151 4 -44 25 -98 50 -129 15 -19 16 -19
35 -2 20 18 20 18 10 -17 -12 -44 -6 -81 13 -85 24 -5 105 75 122 121 16 43
28 132 19 141 -17 17 -133 -90 -133 -123 0 -6 -5 -11 -10 -11 -7 0 -7 6 0 19
5 11 10 33 10 50 0 17 3 30 8 30 31 -5 81 40 113 101 28 54 40 174 18 182 -8
3 -34 -15 -58 -41z"/>
<path d="M2653 1998 c5 -82 22 -121 73 -172 32 -32 46 -40 65 -38 7 1 20 -80
14 -86 -2 -2 -10 9 -19 25 -16 32 -104 109 -113 99 -13 -12 -2 -110 16 -149
32 -68 95 -125 125 -114 15 6 16 75 1 112 -7 16 -4 15 13 -5 20 -25 21 -25 36
-5 36 48 50 91 50 155 -1 65 -23 130 -45 130 -5 0 -21 -25 -35 -55 -14 -30
-26 -55 -27 -55 -1 0 -3 16 -5 35 -1 20 -11 53 -22 74 -26 51 -92 121 -114
121 -17 0 -18 -7 -13 -72z"/>
<path d="M249 1674 c-19 -45 -16 -143 5 -186 20 -41 60 -88 74 -88 15 0 33 82
28 124 -6 45 -50 138 -77 162 -17 16 -19 15 -30 -12z"/>
<path d="M2900 1655 c-45 -65 -62 -121 -57 -180 5 -48 5 -49 -8 -20 -7 17 -31
51 -53 75 l-40 45 -10 -25 c-13 -33 -7 -130 11 -172 17 -40 77 -100 93 -94 8
3 9 -5 4 -28 -10 -43 -1 -96 16 -96 23 0 87 63 105 105 19 44 32 126 23 150
-4 8 -12 15 -19 15 -13 0 -68 -57 -95 -98 -14 -22 -15 -21 -16 32 0 43 3 53
13 45 15 -13 53 24 78 78 28 59 25 189 -5 208 -5 3 -23 -15 -40 -40z"/>
<path d="M423 1538 c-49 -52 -77 -115 -78 -176 0 -51 -1 -52 -15 -30 -8 13
-34 43 -59 68 -44 45 -45 45 -51 20 -10 -36 -2 -103 16 -150 16 -40 99 -124
114 -115 13 8 19 73 10 104 -6 23 -5 29 5 25 17 -7 68 46 91 94 20 43 26 155
10 178 -10 13 -16 10 -43 -18z"/>
<path d="M421 1265 c-34 -68 -44 -130 -30 -180 l9 -29 -29 32 c-38 41 -119 92
-147 92 -21 0 -22 -2 -12 -37 15 -54 33 -86 70 -123 34 -35 84 -60 118 -60 21
0 22 13 5 73 -4 14 -3 18 3 9 26 -37 93 67 94 145 1 81 -17 143 -42 143 -4 0
-22 -29 -39 -65z"/>
<path d="M2715 1297 c-21 -51 -24 -95 -10 -149 14 -57 55 -120 73 -113 10 3
12 -5 8 -34 -2 -22 -2 -42 1 -44 11 -12 94 27 127 59 40 39 59 71 74 127 10
34 9 37 -10 37 -23 0 -104 -44 -128 -69 -9 -9 -24 -27 -33 -41 l-18 -25 8 30
c15 54 7 123 -21 179 -38 78 -52 87 -71 43z"/>
<path d="M484 1053 c-41 -91 -40 -186 3 -258 11 -19 12 -19 32 5 11 14 20 31
21 38 0 6 3 12 8 12 4 0 6 -23 5 -52 0 -28 3 -63 8 -77 10 -24 9 -25 -9 -7
-50 45 -222 78 -222 42 0 -23 76 -88 122 -106 44 -17 74 -18 120 -7 15 4 30 3
33 -3 15 -24 36 -8 47 35 7 25 16 45 21 45 4 0 5 -5 2 -10 -14 -23 26 -120 67
-162 l41 -43 12 35 c7 19 11 43 9 53 -5 29 11 19 24 -15 16 -46 67 -105 110
-128 32 -17 32 -21 -3 -20 -15 1 -104 -51 -129 -75 -26 -24 -28 -28 -12 -37
33 -18 130 -13 178 11 74 36 102 79 58 90 -17 5 -25 14 -25 31 -3 68 -43 139
-103 186 -42 33 -92 58 -100 49 -3 -3 -16 15 -28 39 -24 47 -72 106 -86 106
-4 0 -8 -9 -8 -20 0 -11 -4 -20 -10 -20 -5 0 -10 10 -10 21 0 28 -50 139 -63
139 -5 0 -15 -7 -21 -16 -9 -12 -11 -7 -9 25 2 46 -27 143 -45 149 -7 2 -24
-22 -38 -55z m189 -288 c-3 -9 -8 -14 -10 -11 -3 3 -2 9 2 15 9 16 15 13 8 -4z"/>
<path d="M2655 1074 c-8 -20 -17 -59 -19 -86 -4 -47 -16 -81 -16 -43 0 56 -81
-87 -82 -146 -1 -33 -7 -33 -13 1 -2 12 -7 25 -11 29 -8 8 -70 -64 -86 -101
-9 -19 -28 -36 -56 -48 -95 -42 -171 -135 -175 -215 -2 -28 -7 -37 -30 -45
-24 -8 -27 -12 -17 -30 27 -50 133 -93 207 -83 53 7 66 20 45 41 -34 34 -78
60 -127 75 -28 9 -44 16 -36 16 26 2 103 74 124 117 11 24 24 44 27 44 5 0 10
-22 13 -62 2 -30 34 -20 66 19 34 41 59 104 57 146 -2 43 9 32 23 -23 13 -50
35 -66 47 -35 5 12 9 13 20 4 13 -11 79 -15 114 -6 48 11 140 86 140 113 0 10
-14 14 -47 14 -62 0 -112 -14 -158 -45 -20 -14 -33 -20 -29 -13 4 6 9 39 10
71 2 33 5 62 8 65 3 3 6 0 6 -7 0 -7 9 -24 19 -37 17 -22 21 -23 34 -10 28 28
41 111 27 179 -13 66 -44 137 -60 137 -5 0 -17 -16 -25 -36z"/>
<path d="M241 976 c-16 -19 32 -109 77 -146 36 -29 119 -62 135 -53 15 9 6 50
-19 89 -29 45 -67 73 -136 103 -37 16 -49 17 -57 7z"/>
<path d="M2930 980 c-102 -29 -190 -116 -190 -189 0 -17 4 -18 43 -9 81 18
153 86 176 166 11 36 6 42 -29 32z"/>
<path d="M478 609 c-37 -14 -35 -29 6 -56 74 -48 153 -59 216 -30 34 17 31 27
-17 60 -34 24 -54 30 -110 33 -37 2 -80 -1 -95 -7z"/>
<path d="M2565 610 c-16 -5 -46 -22 -65 -38 l-34 -29 30 -16 c66 -34 152 -22
224 31 35 26 38 31 25 42 -19 16 -139 23 -180 10z"/>
<path d="M694 491 c-36 -9 -114 -51 -114 -62 0 -15 83 -39 133 -39 54 0 122
25 145 53 11 13 10 18 -11 32 -29 19 -109 27 -153 16z"/>
<path d="M2373 485 c-43 -18 -42 -38 5 -67 47 -29 157 -35 208 -10 19 8 34 19
34 22 0 4 -23 19 -51 35 -61 33 -146 41 -196 20z"/>
<path d="M1203 376 c-83 -31 -96 -43 -68 -66 22 -18 20 -22 -30 -53 -25 -16
-45 -33 -45 -39 0 -9 40 -6 105 6 11 2 39 7 63 11 40 6 55 26 32 40 -19 12 -9
24 35 41 25 9 45 22 45 28 0 7 -12 24 -27 37 l-28 25 -82 -30z"/>
<path d="M1881 375 c-26 -39 -23 -50 16 -58 44 -10 60 -24 45 -39 -24 -24 -12
-36 51 -47 134 -23 147 -24 147 -12 0 6 -19 23 -42 37 -24 15 -45 28 -47 30
-2 2 4 13 14 24 24 27 17 33 -80 68 l-81 30 -23 -33z"/>
<path d="M1480 371 c0 -6 -7 -8 -15 -5 -13 5 -15 -8 -15 -85 l0 -91 150 0 150
0 0 91 c0 77 -2 90 -15 85 -8 -3 -15 -1 -15 5 0 7 -18 9 -52 5 -29 -3 -60 -6
-68 -6 -8 0 -39 3 -67 6 -35 4 -53 2 -53 -5z"/>
</g>
</svg>
